<?xml version="1.0" encoding="utf-8"?>
<!-- Generator: Adobe Illustrator 23.0.3, SVG Export Plug-In . SVG Version: 6.00 Build 0)  -->
<svg version="1.1" id="Layer_1" xmlns="http://www.w3.org/2000/svg" xmlns:xlink="http://www.w3.org/1999/xlink" x="0px" y="0px"
	 viewBox="0 0 1002 293" style="enable-background:new 0 0 1002 293;" xml:space="preserve">
<style type="text/css">
	.st0{fill:#02438E;}
	.st1{fill:#AC2225;}
	.st2{fill:#7F1923;}
</style>
<g>
	<g>
		<path class="st0" d="M402.43,86.73v117.24h-15.13V86.73H402.43z"/>
		<path class="st0" d="M451.13,99.61h-35.66V86.73h86.8v12.87h-35.84v104.37h-15.31V99.61z"/>
		<path class="st0" d="M541.4,203.98L511.66,86.73h16l13.92,59.32c3.48,14.61,6.61,29.23,8.7,40.53h0.35
			c1.92-11.65,5.57-25.57,9.57-40.7l15.66-59.14h15.83l14.26,59.49c3.3,13.92,6.43,27.83,8.17,40.18h0.35
			c2.43-12.87,5.74-25.92,9.39-40.53l15.48-59.14h15.48L621.6,203.98h-15.83l-14.79-61.06c-3.65-14.96-6.09-26.44-7.65-38.27h-0.35
			c-2.09,11.65-4.7,23.14-9.04,38.27l-16.7,61.06H541.4z"/>
		<path class="st0" d="M769.62,144.14c0,40.35-24.53,61.75-54.45,61.75c-30.96,0-52.71-24-52.71-59.49
			c0-37.23,23.14-61.58,54.45-61.58C748.92,84.82,769.62,109.35,769.62,144.14z M678.64,146.05c0,25.05,13.57,47.49,37.4,47.49
			c24.01,0,37.58-22.09,37.58-48.71c0-23.31-12.18-47.66-37.4-47.66C691.17,97.17,678.64,120.31,678.64,146.05z"/>
		<path class="st0" d="M789.27,88.3c7.65-1.56,18.61-2.43,29.05-2.43c16.18,0,26.62,2.96,33.92,9.57
			c5.91,5.22,9.22,13.22,9.22,22.27c0,15.48-9.74,25.75-22.09,29.92v0.52c9.04,3.13,14.44,11.48,17.22,23.66
			c3.83,16.35,6.61,27.66,9.04,32.18h-15.66c-1.91-3.3-4.52-13.39-7.83-28.01c-3.48-16.18-9.74-22.27-23.48-22.79H804.4v50.79
			h-15.13V88.3z M804.4,141.7h15.48c16.18,0,26.44-8.87,26.44-22.27c0-15.13-10.96-21.74-26.96-21.92c-7.3,0-12.52,0.7-14.96,1.39
			V141.7z"/>
		<path class="st0" d="M947.9,203.98l-14.96-25.92c-6.09-9.91-9.91-16.35-13.57-23.14h-0.35c-3.3,6.78-6.61,13.05-12.7,23.31
			l-14.09,25.75h-17.4l35.83-59.32l-34.44-57.93h17.57l15.48,27.49c4.35,7.65,7.65,13.57,10.78,19.83h0.52
			c3.31-6.96,6.27-12.35,10.61-19.83l16-27.49h17.4l-35.66,57.06l36.53,60.19H947.9z"/>
	</g>
	<path class="st0" d="M989.02,57.49c-0.19,0.26-0.53,0.46-0.97,0.49c-0.4,0.09-1.25,0.09-2.4,0.09v-3.77h1.07
		c1.73,0,2.59,0.63,2.59,1.83C989.31,56.75,989.21,57.21,989.02,57.49 M992.42,56.03c0-2.99-1.87-4.49-5.7-4.49h-4.22v15.44h3.15
		v-6.21h1.25l3.64,6.21h3.47l-4.15-6.8C991.6,59.26,992.42,57.9,992.42,56.03 M994.7,66.68c-2.02,2.02-4.41,3.02-7.25,3.02
		c-2.86,0-5.24-1-7.25-3.02c-2.01-2.01-3.07-4.45-3.07-7.25c0-2.82,1.01-5.25,3.01-7.26c2.03-1.97,4.45-2.99,7.32-2.99
		c2.84,0,5.23,1.01,7.25,2.99c2,2.01,3.03,4.44,3.03,7.26C997.73,62.28,996.69,64.67,994.7,66.68 M997.05,49.85
		c-2.66-2.58-5.88-3.93-9.6-3.93c-3.74,0-6.98,1.35-9.62,3.93c-2.65,2.66-3.97,5.85-3.97,9.58c0,3.72,1.32,6.92,3.97,9.56
		c2.64,2.66,5.88,3.93,9.62,3.93c3.73,0,6.94-1.28,9.6-3.93c2.61-2.64,3.95-5.83,3.95-9.56C1001,55.7,999.67,52.51,997.05,49.85"/>
	<g>
		<path class="st1" d="M258.77,61.68l-1.74-1.83C221.74,22.94,168.35,1.73,122.59,1.72h-0.08C41.24,1.74,1.18,76.15,1.18,152.23
			c0,12.45,0.83,24.22,2.46,35.24l0.44,2.8c0,0,0,0-0.01,0c0.02,0.14,0.05,0.27,0.07,0.41l0.04,0.28l0,0
			c10.55,63.45,48.77,101.31,112.72,101.31c9.2,0,18.8-0.73,28.55-2.17l0,0l0.14-0.02c0.03,0,0.06-0.01,0.09-0.01c0,0,0,0,0,0
			l2.63-0.4c70.14-11.31,147.47-59.07,147.51-137.39v-0.09C295.83,116.51,281.16,85.84,258.77,61.68z M185.33,220.94
			c-6.07-0.99-15.22-4.06-15.22-4.06c-60.48-23.79-100.95-61.2-107.15-67.14l-10.17-10.87c33.4-27.88,82.05-59.82,140.64-73
			c1.07,3.9,2.87,14.96,2.87,14.96C203.35,141.02,196.14,187.35,185.33,220.94z"/>
		<path class="st2" d="M3.6,187.21l0.44,2.81c0,0,50.22-35.63,58.76-40.47l-10-10.68C52.79,138.87,17.46,168.36,3.6,187.21z"/>
		<path class="st2" d="M196.26,80.58l-2.83-14.71c0,0,26.71-7.35,63.39-6.24l1.76,1.86C258.58,61.49,229.19,67.1,196.26,80.58z"/>
		<path class="st2" d="M169.98,216.83l15.36,4.11c0,0-9.07,36.39-37.17,68.77l-2.69,0.41C145.47,290.12,155.05,266.66,169.98,216.83
			z"/>
	</g>
</g>
</svg>
